<svg width="8" height="8" viewBox="0 0 8 8" fill="none" xmlns="http://www.w3.org/2000/svg">
<path fill-rule="evenodd" clip-rule="evenodd" d="M7.49999 6.24406V6.24406C7.22384 6.24406 6.99997 6.02041 6.99997 5.74453V5.74453V1.7096L0.849802 7.85375V7.85375C0.655951 8.0482 0.341023 8.04883 0.14639 7.85517C-0.0482428 7.6615 -0.0488762 7.34689 0.144975 7.15244C0.146418 7.15099 0.147871 7.14956 0.149332 7.14813L6.30448 0.99905H2.24984H2.24984C1.97369 0.99905 1.74983 0.775405 1.74983 0.499525C1.74983 0.223645 1.97369 0 2.24984 0H7.49999V0C7.77614 -1.20591e-08 8 0.223645 8 0.499525V5.74454C8 6.02042 7.77614 6.24406 7.49999 6.24406L7.49999 6.24406Z" fill="black"/>
</svg>
